# AST/ASF file generated using VICON BodyLanguage
# -----------------------------------------------
:version 1.10
:name VICON
:units
  mass 1.0
  length 0.45
  angle deg
:documentation
   .ast/.asf automatically generated from VICON data using
   VICON BodyBuilder and BodyLanguage model FoxedUp or BRILLIANT.MOD
:root
   order TX TY TZ RX RY RZ
   axis XYZ
   position 0 0 0  
   orientation 0 0 0 
:bonedata
  begin
     id 1 
     name lhipjoint
     direction 0.541323 -0.757556 0.364798 
     length 2.47576 
     axis 0 0 0  XYZ
  end
  begin
     id 2 
     name lfemur
     direction 0.34202 -0.939693 0  
     length 7.46493  
     axis 0 0 20  XYZ
    dof rx ry rz
    limits (-160.0 20.0)
           (-70.0 70.0)
           (-60.0 70.0)
  end
  begin
     id 3 
     name ltibia
     direction 0.34202 -0.939693 0   
     length 7.73805   
     axis 0 0 20   XYZ
    dof rx
    limits (-10.0 170.0)
  end
  begin
     id 4 
     name lfoot
     direction 0.107174 -0.294458 0.949636   
     length 2.25864   
     axis -90 7.62852e-016 20   XYZ
    dof rx rz
    limits (-45.0 90.0)
           (-70.0 20.0)
  end
  begin
     id 5 
     name ltoes
     direction 1.53606e-011 -4.21934e-011 1   
     length 1.12451   
     axis -90 7.62852e-016 20   XYZ
    dof rx
    limits (-90.0 20.0)
  end
  begin
     id 6 
     name rhipjoint
     direction -0.524745 -0.766967 0.36933   
     length 2.44538  
     axis 0 0 0  XYZ 
  end
  begin
     id 7 
     name rfemur
     direction -0.34202 -0.939693 0   
     length 7.61604   
     axis 0 0 -20   XYZ
    dof rx ry rz
    limits (-160.0 20.0)
           (-70.0 70.0)
           (-70.0 60.0)
  end
  begin
     id 8 
     name rtibia
     direction -0.34202 -0.939693 0   
     length 7.61056   
     axis 0 0 -20   XYZ
    dof rx
    limits (-10.0 170.0)
 end
 begin
     id 9 
     name rfoot
     direction -0.12616 -0.346623 0.929482   
     length 2.46372  
     axis -90 -7.62852e-016 -20   XYZ
    dof rx rz
    limits (-45.0 90.0)
           (-20.0 70.0)
  end
  begin
     id 10 
     name rtoes
     direction -1.53531e-011 -4.22004e-011 1   
     length 1.21611   
     axis -90 -7.62852e-016 -20   XYZ
    dof rx
    limits (-90.0 20.0)
  end
  begin
     id 11 
     name lowerback
     direction -0.000778023 0.997293 -0.0735223   
     length 2.06139   
     axis 0 0 0   XYZ
    dof rx ry rz
    limits (-20.0 45.0)
           (-30.0 30.0)
           (-30.0 30.0)
  end
  begin
     id 12 
     name upperback
     direction 0.0222598 0.999722 -0.0078355   
     length 2.06383   
     axis 0 0 0   XYZ
    dof rx ry rz
    limits (-20.0 45.0)
           (-30.0 30.0)
           (-30.0 30.0)
  end
  begin
     id 13 
     name thorax
     direction 0.0219654 0.999405 0.0265994   
     length 2.07163   
     axis 0 0 0   XYZ
    dof rx ry rz
    limits (-20.0 45.0)
           (-30.0 30.0)
           (-30.0 30.0)
  end
  begin
     id 14 
     name lowerneck
     direction 0.0213282 0.988147 0.15202   
     length 1.75969   
     axis 0 0 0   XYZ
    dof rx ry rz
    limits (-20.0 45.0)
           (-30.0 30.0)
           (-30.0 30.0)
  end
  begin
     id 15 
     name upperneck
     direction -0.0546456 0.982624 -0.177379   
     length 1.79244   
     axis 0 0 0   XYZ
    dof rx ry rz
    limits (-20.0 45.0)
           (-30.0 30.0)
           (-30.0 30.0)
  end
  begin
     id 16
     name head
     direction -0.0199987 0.996855 -0.076686  
     length 1.80555  
     axis 0 0 0   XYZ
    dof rx ry rz
    limits (-20.0 45.0)
           (-30.0 30.0)
           (-30.0 30.0)
  end
  begin
     id 17 
     name lclavicle
     direction 0.929565 0.363219 -0.063096  
     length 3.55722  
     axis 0 0 0   XYZ
    dof ry rz
    limits (-20.0 10.0)
           (0.0 20.0)
  end
  begin
     id 18 
     name lhumerus
     direction 1 -4.48993e-011 -2.36203e-027   
     length 4.92785   
     axis 180 -30 -90   XYZ
    dof rx ry rz
    limits (-60.0 90.0)
           (-90.0 90.0)
           (-90.0 90.0)
  end
  begin
     id 19
     name lradius
     direction 1 -4.48947e-011 2.02997e-027   
     length 3.44052   
     axis 180 -30 -90   XYZ
    dof rx
    limits (-10.0 170.0)
  end
  begin
     id 20
     name lwrist
     direction 1 -4.48962e-011 1.45991e-027   
     length 1.72026   
     axis 1.49639e-024 90 90   XYZ
    dof ry
    limits (-180.0 0.0)
 end
  begin
     id 21 
     name lhand
     direction 1 -4.48984e-011 2.91906e-027   
     length 0.654326   
     axis -1.863e-015 90 90   XYZ
    dof rx rz
    limits (-90.0 90.0)
           (-45.0 45.0)
  end
  begin
     id 22 
     name lfingers
     direction 1 -4.48961e-011 5.83968e-027   
     length 0.527534   
     axis -3.72598e-015 90 90   XYZ
    dof rx
    limits (0.0 90.0)
  end
  begin
     id 23
     name lthumb
     direction 0.707107 -6.34963e-011 0.707107   
     length 0.757437   
     axis -90 45 -6.68868e-015   XYZ
    dof rx rz
    limits (-45.0 45.0)
           (-45.0 45.0)
  end
  begin
     id 24 
     name rclavicle
     direction -0.902944 0.422599 -0.0781198   
     length 3.54432  
     axis 0 0 0   XYZ 
    dof ry rz
    limits (-10.0 20.0)
           (-20.0 0.0)
  end
  begin
     id 25 
     name rhumerus
     direction -1 -4.48953e-011 -4.75835e-028  
     length 5.09181   
     axis 180 30 90   XYZ
    dof rx ry rz
    limits (-90.0 60.0)
           (-90.0 90.0)
           (-90.0 90.0)
  end
  begin
     id 26 
     name rradius
     direction -1 -4.48986e-011 -3.25889e-027   
     length 3.49865   
     axis 180 30 90   XYZ
    dof rx
    limits (-10.0 170.0)
  end
  begin
     id 27 
     name rwrist
     direction -1 -4.48963e-011 1.45989e-027   
     length 1.74933   
     axis 1.49639e-024 -90 -90   XYZ
    dof ry
    limits (-180.0 0.0)
  end
  begin
     id 28
     name rhand
     direction -1 -4.49003e-011 2.91844e-027   
     length 0.66641   
     axis -1.863e-015 -90 -90   XYZ
    dof rx rz
    limits (-90.0 90.0)
           (-45.0 45.0)
  end
  begin
     id 29
     name rfingers
     direction -1 -4.48973e-011 5.83886e-027   
     length 0.537277   
     axis -3.72598e-015 -90 -90   XYZ
    dof rx
    limits (0.0 90.0)
  end
  begin
     id 30
     name rthumb
     direction -0.707107 -6.34976e-011 0.707107   
     length 0.771425   
     axis -90 -45 6.68868e-015   XYZ
    dof rx rz
    limits (-45.0 45.0)
           (-45.0 45.0)
  end
:hierarchy
  begin
    root lhipjoint rhipjoint lowerback
    lhipjoint lfemur
    lfemur ltibia
    ltibia lfoot
    lfoot ltoes
    rhipjoint rfemur
    rfemur rtibia
    rtibia rfoot
    rfoot rtoes
    lowerback upperback
    upperback thorax
    thorax lowerneck lclavicle rclavicle
    lowerneck upperneck
    upperneck head
    lclavicle lhumerus
    lhumerus lradius
    lradius lwrist
    lwrist lhand lthumb
    lhand lfingers
    rclavicle rhumerus
    rhumerus rradius
    rradius rwrist
    rwrist rhand rthumb
    rhand rfingers
  end

#!OML:ASF H:\LiuWeirdWalks\Patient Classification 1\Patient 1\Session 1\male.ASF
:FULLY-SPECIFIED
:DEGREES
95
root 0.39535 17.7581 -30.4297 4.63905 3.21737 0.252037
lowerback 3.03255 0.395537 -2.67819
upperback -2.65228 0.429342 0.878708
thorax -4.46852 0.314071 2.38172
lowerneck -21.6988 -0.256327 5.99805
upperneck 25.117 -1.10192 -4.74836
head 11.7605 -0.543853 -2.96489
rclavicle 3.82195e-015 -8.15017e-015
rhumerus -32.8206 -13.5003 -80.0045
rradius 22.7625
rwrist 1.1104
rhand -16.8442 -2.11718
rfingers 7.12502
rthumb 9.38563 -31.8882
lclavicle 3.82195e-015 -8.15017e-015
lhumerus -31.5614 -0.165023 87.4408
lradius 23.083
lwrist 6.83852
lhand -11.7839 0.83572
lfingers 7.12502
lthumb 14.2652 30.3258
rfemur -13.5869 -0.160965 19.201
rtibia 35.41
rfoot -20.8405 -20.8173
rtoes -2.20083
lfemur -9.77253 -1.29429 -18.7829
ltibia 27.9846
lfoot -15.5529 15.0798
ltoes -7.95757
96
root 0.383187 17.7553 -30.4147 4.70857 3.17474 0.249457
lowerback 3.01494 0.372543 -2.67234
upperback -2.63132 0.400525 0.904221
thorax -4.43505 0.29924 2.40694
lowerneck -21.6945 -0.24265 5.98862
upperneck 25.0418 -1.07329 -4.77104
head 11.7324 -0.536193 -2.96504
rclavicle -2.60905e-016 2.8625e-014
rhumerus -32.8295 -13.4967 -80.0202
rradius 22.748
rwrist 1.15239
rhand -16.8028 -2.08537
rfingers 7.12502
rthumb 9.42561 -31.8546
lclavicle -2.60905e-016 2.8625e-014
lhumerus -31.482 -0.124739 87.4434
lradius 23.0178
lwrist 6.76123
lhand -11.7633 0.861156
lfingers 7.12502
lthumb 14.2851 30.3498
rfemur -13.6327 -0.129784 19.2492
rtibia 35.4492
rfoot -20.9662 -20.7583
rtoes -2.16227
lfemur -9.80773 -1.28199 -18.7402
ltibia 28.0231
lfoot -15.6221 15.1337
ltoes -7.99397
97
root 0.370328 17.7527 -30.3988 4.78989 3.12198 0.230897
lowerback 2.99649 0.359798 -2.65166
upperback -2.60044 0.38621 0.929452
thorax -4.39151 0.29087 2.42251
lowerneck -21.7723 -0.239084 5.96026
upperneck 24.9835 -1.06383 -4.77126
head 11.726 -0.536185 -2.95837
rclavicle 1.42721e-014 -1.70955e-014
rhumerus -32.8197 -13.5094 -80.0398
rradius 22.7437
rwrist 1.18283
rhand -16.7593 -2.0431
rfingers 7.12502
rthumb 9.46755 -31.8104
lclavicle 1.42721e-014 -1.70955e-014
lhumerus -31.3643 -0.102833 87.4511
lradius 22.9613
lwrist 6.70878
lhand -11.714 0.969813
lfingers 7.12502
lthumb 14.3326 30.4551
rfemur -13.6864 -0.0889953 19.3177
rtibia 35.479
rfoot -21.0834 -20.7001
rtoes -2.10843
lfemur -9.85456 -1.27391 -18.6774
ltibia 28.0632
lfoot -15.6854 15.2002
ltoes -8.02163
98
root 0.356874 17.7502 -30.3812 4.87107 3.06379 0.197784
lowerback 2.95556 0.141906 -2.73193
upperback -2.56583 0.103102 1.20554
thorax -4.31611 0.155604 2.77313
lowerneck -21.905 0.154559 5.96152
upperneck 24.9015 -0.405719 -5.13986
head 11.7623 -0.291916 -2.99286
rclavicle 9.41121e-016 -2.28602e-014
rhumerus -32.6261 -12.6568 -80.0732
rradius 22.691
rwrist 1.09556
rhand -16.7054 -2.03452
rfingers 7.12502
rthumb 9.5196 -31.7995
lclavicle 9.41121e-016 -2.28602e-014
lhumerus -31.3446 0.861949 87.4622
lradius 22.9425
lwrist 6.51002
lhand -11.6346 1.09588
lfingers 7.12502
lthumb 14.4091 30.5757
rfemur -13.7313 -0.0416684 19.4051
rtibia 35.4999
rfoot -21.1903 -20.6469
rtoes -2.07001
lfemur -9.89587 -1.25983 -18.5951
ltibia 28.1029
lfoot -15.7479 15.2651
ltoes -8.04367
99
root 0.342475 17.7478 -30.362 4.95599 3.00323 0.156869
lowerback 2.9168 -0.0251942 -2.77319
upperback -2.5374 -0.113031 1.41671
thorax -4.2498 0.0513176 3.02961
lowerneck -22.0331 0.456797 5.96252
upperneck 24.8689 0.0946955 -5.40912
head 11.8089 -0.104747 -3.01553
rclavicle 3.18055e-015 -7.55382e-015
rhumerus -32.4948 -12.0107 -80.1104
rradius 22.6556
rwrist 1.01655
rhand -16.6447 -2.0222
rfingers 7.12502
rthumb 9.5782 -31.7845
lclavicle 3.18055e-015 -7.55382e-015
lhumerus -31.305 1.5811 87.4636
lradius 22.9127
lwrist 6.3454
lhand -11.5437 1.10941
lfingers 7.12502
lthumb 14.4967 30.583
rfemur -13.7718 0.0114371 19.5056
rtibia 35.5151
rfoot -21.2903 -20.6012
rtoes -2.04779
lfemur -9.93409 -1.23746 -18.4986
ltibia 28.1393
lfoot -15.8101 15.3225
ltoes -8.05676
100
root 0.327867 17.7455 -30.3413 5.04578 2.92844 0.123456
lowerback 2.88608 -0.0297519 -2.72219
upperback -2.47378 -0.115005 1.43549
thorax -4.16588 0.0467631 3.01992
lowerneck -22.2691 0.441321 5.82291
upperneck 24.8842 0.0762601 -5.2963
head 11.86 -0.113488 -2.95556
rclavicle -9.69075e-015 1.19271e-015
rhumerus -32.4144 -12.0483 -80.151
rradius 22.6415
rwrist 1.0258
rhand -16.6029 -2.0263
rfingers 7.12502
rthumb 9.6185 -31.7867
lclavicle -9.69075e-015 1.19271e-015
lhumerus -31.12 1.59879 87.4657
lradius 22.8738
lwrist 6.27686
lhand -11.4587 1.11434
lfingers 7.12502
lthumb 14.5786 30.582
rfemur -13.8141 0.058048 19.5956
rtibia 35.5287
rfoot -21.3844 -20.5394
rtoes -2.04079
lfemur -9.96548 -1.20635 -18.4111
ltibia 28.1673
lfoot -15.8673 15.3844
ltoes -8.08189
101
root 0.312415 17.7432 -30.3195 5.14632 2.84683 0.0989079
lowerback 2.85797 0.00409319 -2.67348
upperback -2.46057 -0.0679197 1.40429
thorax -4.13944 0.067621 2.95682
lowerneck -22.3519 0.363108 5.74219
upperneck 24.9014 -0.0511331 -5.15791
head 11.8745 -0.160412 -2.91165
rclavicle -5.95733e-015 -2.78299e-015
rhumerus -32.4725 -12.2243 -80.1822
rradius 22.6467
rwrist 1.03299
rhand -16.5725 -2.0517
rfingers 7.12502
rthumb 9.64781 -31.8108
lclavicle -5.95733e-015 -2.78299e-015
lhumerus -31.0373 1.42348 87.4596
lradius 22.8689
lwrist 6.26632
lhand -11.358 1.10585
lfingers 7.12502
lthumb 14.6756 30.5665
rfemur -13.8641 0.105132 19.6782
rtibia 35.5444
rfoot -21.4762 -20.4752
rtoes -2.06519
lfemur -9.99754 -1.14717 -18.3287
ltibia 28.1858
lfoot -15.9226 15.4271
ltoes -8.14522
102
root 0.296353 17.7408 -30.2967 5.24612 2.76169 0.0944196
lowerback 2.83603 0.155518 -2.58899
upperback -2.43436 0.132579 1.23098
thorax -4.11269 0.161386 2.71644
lowerneck -22.424 0.0584838 5.63635
upperneck 24.9127 -0.55384 -4.80701
head 11.8612 -0.349144 -2.84357
rclavicle -1.40267e-014 2.98177e-015
rhumerus -32.5896 -12.9103 -80.2087
rradius 22.6578
rwrist 1.12022
rhand -16.5611 -2.07593
rfingers 7.12502
rthumb 9.65887 -31.8345
lclavicle -1.40267e-014 2.98177e-015
lhumerus -30.8718 0.72636 87.4533
lradius 22.8501
lwrist 6.37412
lhand -11.2824 1.12229
lfingers 7.12502
lthumb 14.7485 30.5776
rfemur -13.9089 0.149365 19.7397
rtibia 35.562
rfoot -21.5749 -20.4036
rtoes -2.10039
lfemur -10.0189 -1.07532 -18.266
ltibia 28.1964
lfoot -15.978 15.4597
ltoes -8.24606
103
root 0.27986 17.7383 -30.2732 5.3527 2.66067 0.0935228
lowerback 2.81761 0.342977 -2.48934
upperback -2.4229 0.380106 1.0125
thorax -4.10386 0.27791 2.41812
lowerneck -22.4516 -0.305129 5.55692
upperneck 24.9407 -1.15867 -4.41667
head 11.8426 -0.574994 -2.78139
rclavicle 7.8023e-015 1.23246e-014
rhumerus -32.7523 -13.7397 -80.2324
rradius 22.6668
rwrist 1.23741
rhand -16.5609 -2.09487
rfingers 7.12502
rthumb 9.659 -31.8534
lclavicle 7.8023e-015 1.23246e-014
lhumerus -30.7244 -0.124271 87.4381
lradius 22.8489
lwrist 6.54613
lhand -11.2079 1.2027
lfingers 7.12502
lthumb 14.8202 30.6527
rfemur -13.9601 0.200337 19.7968
rtibia 35.5811
rfoot -21.6787 -20.3223
rtoes -2.15232
lfemur -10.0394 -0.995481 -18.2075
ltibia 28.2022
lfoot -16.0338 15.4999
ltoes -8.36894
